<svg xmlns="http://www.w3.org/2000/svg" viewBox="0 0 256 256" role="img" aria-label="ProcessMap favicon">
  <defs>
    <linearGradient id="bg" x1="0" y1="0" x2="0" y2="1">
      <stop offset="0" stop-color="#2aa0ff"/>
      <stop offset="1" stop-color="#184bff"/>
    </linearGradient>
    <linearGradient id="pin" x1="0" y1="0" x2="0" y2="1">
      <stop offset="0" stop-color="#79ec20"/>
      <stop offset="1" stop-color="#00b54f"/>
    </linearGradient>
    <filter id="soft" x="-20%" y="-20%" width="140%" height="140%">
      <feDropShadow dx="0" dy="2" stdDeviation="2" flood-color="#000" flood-opacity="0.2"/>
    </filter>
  </defs>

  <rect x="8" y="8" width="240" height="240" rx="36" fill="url(#bg)"/>

  <g fill="none" stroke="#edf2ff" stroke-linecap="round" stroke-linejoin="round" filter="url(#soft)">
    <path d="M56 72 H106 H150" stroke-width="7"/>
    <path d="M150 76 V108" stroke-width="7"/>
    <path d="M150 130 V168" stroke-width="7"/>
    <path d="M70 130 H150 H196" stroke-width="7"/>
    <path d="M70 130 V168" stroke-width="7"/>
    <path d="M70 130 H70" stroke-width="7"/>
    <path d="M70 130 H150" stroke-width="7"/>
  </g>

  <circle cx="52" cy="72" r="16" fill="#f3f6ff" filter="url(#soft)"/>
  <circle cx="106" cy="72" r="7" fill="#f3f6ff"/>

  <path d="M138 60 H184 C190 60 194 66 192 72 L186 92 C185 96 181 99 176 99 H122 C116 99 112 93 114 87 L121 67 C123 63 126 60 130 60 Z" fill="#f3f6ff" filter="url(#soft)"/>

  <path d="M150 108 L178 128 L150 148 L122 128 Z" fill="#f3f6ff" filter="url(#soft)"/>

  <rect x="36" y="168" width="58" height="34" rx="6" fill="#f3f6ff" filter="url(#soft)"/>
  <rect x="128" y="168" width="58" height="34" rx="6" fill="#f3f6ff" filter="url(#soft)"/>

  <circle cx="70" cy="168" r="8" fill="#f3f6ff"/>
  <circle cx="150" cy="168" r="8" fill="#f3f6ff"/>

  <g filter="url(#soft)">
    <path d="M195 142 C180 142 168 154 168 169 C168 186 182 204 193 220 C194 222 197 222 198 220 C209 204 223 186 223 169 C223 154 210 142 195 142 Z" fill="url(#pin)"/>
    <circle cx="195" cy="169" r="12" fill="#0b9442"/>
    <circle cx="195" cy="169" r="7" fill="#eef7ff"/>
  </g>
</svg>
